<svg id="svg" version="1.1" xmlns="http://www.w3.org/2000/svg" xmlns:xlink="http://www.w3.org/1999/xlink" width="400" height="240" viewBox="0, 0, 400,240"><g id="svgg"><path id="path0" d="M17.100 12.188 C 16.106 12.434,14.744 13.157,13.972 13.848 C 13.147 14.586,12.760 15.173,10.839 18.600 C 10.561 19.095,10.181 19.725,9.994 20.000 C 9.671 20.473,7.242 24.653,6.157 26.600 C 5.882 27.095,5.361 27.995,5.000 28.600 C 4.639 29.205,4.166 30.015,3.948 30.400 C 3.730 30.785,2.876 32.251,2.050 33.658 C 1.225 35.065,0.586 36.253,0.631 36.298 C 0.754 36.420,29.076 36.566,30.750 36.453 L 32.200 36.355 32.200 24.277 L 32.200 12.200 28.350 12.182 C 26.233 12.172,22.970 12.136,21.100 12.102 C 19.230 12.067,17.430 12.106,17.100 12.188 M91.510 24.422 C 85.585 34.838,84.585 36.708,84.753 37.072 C 84.861 37.308,89.039 44.565,94.036 53.200 C 99.034 61.835,105.187 72.478,107.711 76.850 C 110.234 81.223,112.344 84.798,112.399 84.797 C 112.564 84.791,124.066 64.818,124.481 63.819 C 125.081 62.373,125.033 59.648,124.381 58.100 C 124.103 57.440,121.476 52.652,118.542 47.460 C 115.609 42.268,113.095 37.756,112.955 37.434 C 112.513 36.417,98.731 12.200,98.594 12.200 C 98.523 12.200,95.335 17.700,91.510 24.422 M164.922 57.982 C 153.785 63.801,153.112 64.183,152.541 65.018 C 151.766 66.151,141.589 82.164,131.992 97.352 L 124.503 109.204 100.602 109.177 C 87.456 109.161,76.858 109.109,77.050 109.060 C 77.375 108.977,77.400 108.483,77.400 102.252 C 77.400 98.557,77.368 95.571,77.330 95.617 C 77.115 95.870,69.193 108.786,69.095 109.041 C 69.026 109.220,70.714 112.741,73.160 117.523 C 75.460 122.021,77.988 126.976,78.778 128.536 C 80.549 132.034,81.470 133.116,83.555 134.147 L 85.078 134.900 98.089 135.026 C 105.245 135.096,117.040 135.163,124.300 135.175 L 137.500 135.197 140.800 129.769 C 142.615 126.784,144.662 123.447,145.350 122.353 C 146.037 121.260,146.600 120.327,146.600 120.281 C 146.600 120.234,147.072 119.449,147.650 118.535 C 149.017 116.372,149.067 116.292,149.841 115.005 C 150.203 114.403,150.680 113.624,150.900 113.274 C 151.120 112.924,151.615 112.114,152.000 111.474 C 152.385 110.834,152.880 110.024,153.100 109.674 C 153.320 109.324,153.815 108.514,154.200 107.874 C 154.585 107.234,155.080 106.424,155.300 106.074 C 155.520 105.724,156.015 104.914,156.400 104.274 C 156.785 103.634,157.280 102.823,157.500 102.471 C 158.550 100.791,159.708 98.881,159.780 98.711 C 159.824 98.607,160.341 97.775,160.930 96.863 C 161.518 95.950,162.000 95.149,162.000 95.083 C 162.000 95.016,162.169 94.723,162.376 94.431 C 162.903 93.687,166.000 88.604,166.000 88.483 C 166.000 88.428,166.094 88.274,166.208 88.142 C 166.322 88.009,166.966 87.000,167.638 85.900 C 170.553 81.128,170.997 80.401,172.096 78.600 C 172.734 77.555,173.722 75.935,174.293 75.000 C 174.864 74.065,175.864 72.417,176.515 71.338 C 177.167 70.259,178.134 68.694,178.664 67.861 C 180.935 64.290,181.301 63.363,181.288 61.223 L 181.275 59.300 180.254 57.450 C 179.692 56.433,179.293 55.599,179.366 55.597 C 179.440 55.595,179.404 55.528,179.287 55.447 C 179.042 55.279,177.721 53.000,177.867 53.000 C 177.920 53.000,177.727 52.730,177.437 52.400 C 176.781 51.652,178.532 50.871,164.922 57.982 M43.697 61.144 C 40.700 62.228,40.678 62.254,33.692 73.200 C 30.428 78.315,27.418 82.950,27.004 83.500 C 25.448 85.569,11.772 107.236,11.879 107.463 C 11.941 107.593,12.218 108.060,12.494 108.500 C 12.771 108.940,13.059 109.435,13.134 109.600 C 13.210 109.765,13.705 110.597,14.236 111.448 C 14.766 112.299,15.200 113.040,15.200 113.094 C 15.200 113.148,15.515 113.685,15.900 114.287 C 16.285 114.888,16.600 115.428,16.600 115.487 C 16.600 115.545,16.915 116.085,17.300 116.687 C 17.685 117.288,18.000 117.832,18.000 117.894 C 18.000 117.957,18.246 118.389,18.548 118.854 C 18.849 119.319,19.209 119.925,19.347 120.200 C 19.486 120.475,19.775 120.970,19.989 121.300 C 20.203 121.630,20.503 122.125,20.656 122.400 C 21.693 124.258,22.096 124.961,22.379 125.401 C 22.746 125.973,22.968 126.338,23.717 127.600 C 24.011 128.095,25.148 129.963,26.244 131.751 L 28.236 135.002 30.268 133.920 C 31.386 133.325,36.125 130.839,40.800 128.396 C 50.590 123.281,49.486 123.918,49.157 123.574 C 49.013 123.423,48.792 123.065,48.665 122.778 C 48.538 122.491,46.526 118.936,44.194 114.878 C 41.861 110.820,39.950 107.410,39.946 107.300 C 39.940 107.134,46.573 97.031,68.153 64.337 C 69.301 62.597,70.208 61.141,70.168 61.102 C 69.840 60.773,44.612 60.813,43.697 61.144 " stroke="none" fill="#e9d3ec" fill-rule="evenodd"></path><path id="path1" d="M0.956 37.450 C 7.472 48.968,24.736 79.535,25.976 81.749 C 26.484 82.657,26.952 83.399,27.016 83.399 C 27.080 83.400,29.940 79.000,33.372 73.622 C 40.045 63.164,40.597 62.448,42.756 61.436 L 43.900 60.900 57.200 60.901 C 64.515 60.901,70.116 60.856,69.647 60.801 L 68.793 60.700 78.074 51.424 C 83.438 46.062,87.446 42.205,87.573 42.283 C 87.694 42.358,87.636 42.145,87.446 41.811 C 87.256 41.476,87.033 41.202,86.950 41.201 C 86.868 41.201,86.800 41.096,86.800 40.968 C 86.800 40.840,86.296 39.865,85.680 38.800 L 84.561 36.865 75.730 36.733 C 70.874 36.660,55.381 36.600,41.302 36.600 L 15.703 36.600 10.947 41.350 C 7.121 45.170,6.151 46.041,5.992 45.800 C 5.882 45.635,4.618 43.453,3.182 40.950 C 1.746 38.448,0.523 36.400,0.466 36.400 C 0.409 36.400,0.629 36.873,0.956 37.450 M115.434 41.850 C 122.845 54.952,124.391 57.792,124.708 58.890 C 125.176 60.511,125.022 62.787,124.345 64.239 C 123.693 65.639,112.415 85.115,112.294 85.050 C 112.242 85.023,110.445 85.000,108.300 85.000 L 104.400 85.000 104.400 97.002 L 104.400 109.004 114.519 108.952 L 124.637 108.900 135.572 91.600 C 141.586 82.085,147.630 72.527,149.003 70.361 L 151.500 66.422 151.447 52.011 L 151.395 37.600 132.212 37.600 L 113.030 37.600 115.434 41.850 M56.765 81.653 C 55.151 84.099,51.476 89.688,48.599 94.072 L 43.367 102.045 60.534 137.272 C 69.975 156.648,77.688 172.612,77.673 172.748 C 77.658 172.884,77.737 172.939,77.849 172.870 C 77.960 172.801,78.011 172.867,77.961 173.018 C 77.911 173.168,77.948 173.383,78.044 173.496 C 78.228 173.710,80.778 178.234,81.344 179.350 C 81.801 180.250,81.632 180.455,84.388 175.644 C 85.756 173.255,87.947 169.455,89.257 167.200 C 90.567 164.945,92.310 161.930,93.132 160.500 C 93.953 159.070,94.711 157.765,94.815 157.600 C 94.920 157.435,95.103 157.053,95.222 156.750 C 95.342 156.447,95.513 156.200,95.604 156.200 C 95.694 156.200,95.827 155.931,95.900 155.601 C 95.972 155.272,96.182 154.915,96.366 154.807 C 96.550 154.700,96.638 154.609,96.562 154.606 C 96.486 154.603,96.543 154.370,96.689 154.089 C 96.938 153.609,96.688 153.034,92.498 144.439 L 88.042 135.300 97.971 135.197 L 107.900 135.094 96.781 135.047 C 80.643 134.979,82.734 136.370,74.495 120.226 L 68.844 109.152 70.534 106.439 C 71.464 104.946,72.242 103.630,72.262 103.513 C 72.283 103.397,72.435 103.188,72.600 103.050 C 72.866 102.827,72.866 102.811,72.598 102.903 C 72.366 102.982,70.822 99.981,66.012 90.103 C 62.557 83.006,59.723 77.202,59.715 77.203 C 59.707 77.205,58.379 79.208,56.765 81.653 " stroke="none" fill="#919fe6" fill-rule="evenodd"></path><path id="path2" d="M151.400 51.940 C 151.400 60.023,151.475 66.197,151.573 66.090 C 151.668 65.986,154.427 61.670,157.704 56.500 C 160.980 51.330,164.998 45.000,166.631 42.433 C 168.264 39.867,169.600 37.729,169.600 37.683 C 169.600 37.638,165.505 37.600,160.500 37.600 L 151.400 37.600 151.400 51.940 M78.000 51.500 L 68.702 60.800 69.572 60.800 C 70.682 60.800,71.130 59.968,65.005 69.292 L 59.765 77.270 62.499 82.885 C 64.003 85.973,66.821 91.763,68.760 95.750 C 70.700 99.738,72.345 103.000,72.416 103.000 C 72.517 103.000,78.521 93.378,82.994 86.050 L 83.634 85.000 97.939 85.000 C 109.803 85.000,112.225 84.954,112.140 84.732 C 112.037 84.465,103.528 69.717,93.142 51.806 C 90.114 46.584,87.560 42.287,87.468 42.256 C 87.375 42.225,83.114 46.385,78.000 51.500 M387.000 71.688 C 387.000 73.398,386.918 74.627,386.800 74.700 C 386.690 74.768,386.600 75.037,386.600 75.297 C 386.600 76.228,385.764 76.600,383.673 76.600 L 381.800 76.600 381.800 78.700 L 381.800 80.800 384.095 80.800 L 386.390 80.800 386.445 91.350 L 386.500 101.900 387.104 102.882 C 388.113 104.524,388.630 104.688,393.050 104.766 L 396.800 104.831 396.800 102.816 L 396.800 100.800 394.000 100.800 L 391.200 100.800 391.200 90.800 L 391.200 80.800 394.200 80.800 L 397.200 80.800 397.200 78.700 L 397.200 76.600 394.200 76.600 L 391.200 76.600 391.200 72.700 L 391.200 68.800 389.100 68.800 L 387.000 68.800 387.000 71.688 M214.000 75.934 C 213.615 75.986,213.215 76.112,213.110 76.214 C 213.005 76.316,212.780 76.400,212.610 76.400 C 211.464 76.401,209.090 78.137,207.960 79.800 C 207.629 80.288,207.621 80.255,207.610 78.450 L 207.600 76.600 205.200 76.600 L 202.800 76.600 202.800 96.100 L 202.800 115.600 205.198 115.600 L 207.595 115.600 207.648 108.403 L 207.700 101.205 208.532 102.281 C 209.467 103.489,210.710 104.418,211.900 104.797 C 212.340 104.937,212.826 105.153,212.981 105.276 C 213.155 105.415,214.228 105.500,215.800 105.500 C 217.373 105.500,218.445 105.415,218.619 105.276 C 218.774 105.153,219.260 104.940,219.700 104.804 C 223.101 103.748,225.843 100.156,226.726 95.600 C 228.468 86.602,225.404 78.439,219.614 76.654 C 219.001 76.465,218.453 76.246,218.395 76.166 C 218.262 75.983,214.935 75.807,214.000 75.934 M243.000 75.925 C 242.615 75.973,242.120 76.090,241.900 76.185 C 241.680 76.280,240.933 76.540,240.239 76.764 C 237.060 77.788,234.142 80.864,233.188 84.200 C 233.046 84.695,232.865 85.190,232.787 85.300 C 231.899 86.538,231.906 95.132,232.796 96.300 C 232.879 96.410,233.062 96.860,233.202 97.300 C 234.302 100.770,237.415 104.014,240.400 104.802 C 240.895 104.932,241.426 105.143,241.581 105.270 C 241.961 105.581,247.957 105.590,248.157 105.279 C 248.236 105.157,248.631 104.997,249.036 104.922 C 251.156 104.533,254.607 101.947,255.597 100.007 C 256.169 98.885,256.126 98.761,254.920 98.030 C 254.326 97.670,253.682 97.201,253.489 96.988 C 252.968 96.412,252.692 96.508,252.136 97.457 C 249.654 101.692,242.629 102.715,239.575 99.286 C 239.204 98.870,238.737 98.359,238.538 98.152 C 237.740 97.323,237.000 94.776,237.000 92.863 L 237.000 92.000 247.100 92.000 L 257.200 92.000 257.200 90.112 C 257.200 89.073,257.123 88.176,257.029 88.118 C 256.935 88.060,256.800 87.457,256.729 86.778 C 256.005 79.852,249.944 75.061,243.000 75.925 M274.703 75.936 C 274.264 75.987,273.859 76.095,273.803 76.175 C 273.746 76.254,273.332 76.427,272.882 76.558 C 271.709 76.900,270.608 77.768,269.535 79.196 L 268.600 80.440 268.600 78.520 L 268.600 76.600 266.200 76.600 L 263.800 76.600 263.800 90.700 L 263.800 104.800 266.200 104.800 L 268.600 104.800 268.604 94.550 C 268.609 84.939,268.632 84.248,268.986 83.469 C 270.741 79.605,277.296 79.029,279.900 82.511 C 281.272 84.345,281.256 84.206,281.346 95.050 L 281.427 104.800 283.729 104.800 L 286.031 104.800 285.952 94.450 C 285.854 81.726,285.771 81.239,283.213 78.535 C 281.378 76.596,277.959 75.552,274.703 75.936 M305.450 75.934 C 304.983 75.983,304.600 76.108,304.600 76.211 C 304.600 76.315,304.438 76.400,304.239 76.400 C 302.886 76.400,300.628 78.273,299.539 80.300 C 299.224 80.885,299.216 80.845,299.208 78.750 L 299.200 76.600 296.900 76.600 L 294.600 76.600 294.600 90.700 L 294.600 104.800 296.900 104.800 L 299.200 104.800 299.200 94.638 C 299.200 83.119,299.122 83.709,300.872 81.960 C 303.279 79.553,308.648 79.714,310.530 82.251 C 311.844 84.021,311.870 84.250,311.953 95.050 L 312.027 104.800 314.429 104.800 L 316.831 104.800 316.746 94.450 C 316.645 82.075,316.615 81.887,314.289 78.935 C 313.394 77.800,311.134 76.400,310.196 76.400 C 310.022 76.400,309.794 76.314,309.689 76.209 C 309.465 75.985,306.685 75.805,305.450 75.934 M332.400 75.938 C 332.015 75.979,331.520 76.092,331.300 76.191 C 331.080 76.289,330.630 76.428,330.300 76.500 C 327.221 77.170,323.247 81.116,324.553 82.206 C 324.747 82.367,325.391 82.902,325.983 83.394 L 327.060 84.287 327.379 83.794 C 329.164 81.037,331.876 79.813,335.354 80.195 C 338.883 80.582,340.392 82.534,340.398 86.718 L 340.400 88.336 336.250 88.466 C 331.965 88.599,330.158 88.812,329.070 89.311 C 328.723 89.470,328.338 89.600,328.213 89.600 C 327.076 89.600,324.430 91.830,323.752 93.361 C 322.912 95.256,323.057 99.335,324.032 101.259 C 324.802 102.775,327.171 104.789,328.200 104.799 C 328.365 104.801,328.770 104.954,329.100 105.140 C 329.827 105.550,334.938 105.660,335.419 105.276 C 335.574 105.153,336.060 104.937,336.500 104.795 C 338.121 104.275,340.090 102.491,340.513 101.159 C 340.632 100.784,340.709 100.874,341.044 101.771 C 341.905 104.079,343.188 104.797,346.450 104.799 L 348.400 104.800 348.400 102.800 L 348.400 100.800 346.800 100.800 L 345.200 100.800 345.200 92.510 C 345.200 83.419,345.152 82.924,344.057 80.769 C 342.280 77.272,337.705 75.376,332.400 75.938 M365.100 75.924 C 364.770 75.974,364.320 76.095,364.100 76.194 C 363.880 76.293,363.250 76.564,362.700 76.797 C 361.561 77.278,360.217 78.487,359.375 79.789 L 358.800 80.678 358.800 78.639 L 358.800 76.600 356.400 76.600 L 354.000 76.600 354.000 90.700 L 354.000 104.800 356.392 104.800 L 358.783 104.800 358.842 94.450 C 358.899 84.237,358.906 84.089,359.338 83.281 C 361.348 79.525,368.002 79.139,370.338 82.643 C 371.552 84.463,371.600 84.952,371.600 95.537 L 371.600 104.800 373.911 104.800 L 376.222 104.800 376.158 94.150 L 376.093 83.500 375.566 81.944 C 374.658 79.265,372.684 77.215,370.400 76.580 C 369.905 76.443,369.403 76.257,369.284 76.169 C 369.026 75.976,365.952 75.797,365.100 75.924 M247.800 80.598 C 250.010 81.530,251.785 84.235,251.958 86.932 L 252.053 88.400 244.526 88.400 L 237.000 88.400 237.000 87.910 C 237.000 84.600,239.278 81.390,242.346 80.379 C 243.916 79.861,246.279 79.956,247.800 80.598 M216.216 80.403 C 218.865 80.905,221.799 83.761,221.800 85.838 C 221.800 86.024,221.890 86.232,222.000 86.300 C 222.218 86.435,222.290 94.843,222.075 95.058 C 222.006 95.127,221.759 95.752,221.525 96.447 C 220.153 100.523,215.069 102.462,210.848 100.520 C 207.809 99.121,207.600 98.493,207.600 90.746 L 207.600 84.479 208.110 83.456 C 209.299 81.068,212.791 79.754,216.216 80.403 M340.400 94.687 C 340.400 98.356,339.772 99.530,337.187 100.690 C 332.610 102.744,328.000 100.853,328.000 96.923 C 328.000 94.038,329.416 92.674,332.652 92.443 C 333.399 92.389,334.058 92.268,334.117 92.173 C 334.176 92.078,335.613 92.000,337.312 92.000 L 340.400 92.000 340.400 94.687 M89.389 138.050 C 90.139 139.618,92.142 143.738,93.840 147.207 C 95.539 150.676,96.890 153.646,96.842 153.807 C 96.722 154.210,98.434 151.365,101.599 145.900 C 103.064 143.370,104.684 140.580,105.199 139.700 C 105.714 138.820,106.389 137.650,106.700 137.100 C 107.012 136.550,107.397 135.898,107.556 135.650 L 107.846 135.200 97.936 135.200 L 88.026 135.200 89.389 138.050 " stroke="none" fill="#6278bb" fill-rule="evenodd"></path><path id="path3" d="M49.650 12.141 L 49.200 12.228 49.200 24.414 L 49.200 36.600 63.000 36.648 C 70.590 36.674,78.529 36.696,80.643 36.698 L 84.487 36.700 91.436 24.500 C 95.258 17.790,98.389 12.233,98.393 12.150 C 98.400 11.995,50.453 11.987,49.650 12.141 M168.471 39.556 C 167.800 40.625,165.982 43.520,164.430 45.988 C 162.879 48.457,161.648 50.515,161.695 50.562 C 161.742 50.609,164.328 49.320,167.440 47.698 C 170.553 46.076,173.194 44.745,173.309 44.741 C 173.482 44.735,170.225 38.216,169.819 37.756 C 169.749 37.677,169.143 38.487,168.471 39.556 M46.628 143.217 C 38.501 147.485,36.297 148.564,36.078 148.381 C 35.446 147.858,35.207 147.434,46.437 166.700 C 53.428 178.694,53.684 179.039,56.122 179.792 C 57.386 180.183,81.600 180.472,81.600 180.096 C 81.600 180.002,66.084 152.975,59.875 142.254 C 58.459 139.808,57.210 137.811,57.100 137.814 C 56.990 137.818,52.277 140.249,46.628 143.217 " stroke="none" fill="#bca4ac" fill-rule="evenodd"></path><path id="path4" d="M27.750 12.150 L 32.200 12.208 32.200 24.294 L 32.200 36.381 30.950 36.452 C 30.263 36.491,34.087 36.540,39.450 36.561 L 49.200 36.600 49.200 24.414 L 49.200 12.228 49.650 12.141 C 49.898 12.093,44.070 12.063,36.700 12.073 C 29.330 12.084,25.302 12.118,27.750 12.150 M0.657 36.540 C 0.708 36.628,1.885 38.680,3.272 41.100 C 4.659 43.520,5.883 45.635,5.992 45.800 C 6.194 46.107,15.689 36.906,15.495 36.592 C 15.376 36.400,0.545 36.348,0.657 36.540 M16.250 36.538 C 16.443 36.588,16.758 36.588,16.950 36.538 C 17.143 36.488,16.985 36.446,16.600 36.446 C 16.215 36.446,16.058 36.488,16.250 36.538 M24.250 36.538 C 24.443 36.588,24.758 36.588,24.950 36.538 C 25.143 36.488,24.985 36.446,24.600 36.446 C 24.215 36.446,24.058 36.488,24.250 36.538 M73.750 36.747 C 74.328 36.788,75.273 36.788,75.850 36.747 C 76.427 36.707,75.955 36.674,74.800 36.674 C 73.645 36.674,73.172 36.707,73.750 36.747 M167.600 47.622 C 164.465 49.257,161.797 50.596,161.671 50.597 C 161.456 50.600,161.266 50.894,161.239 51.268 C 161.232 51.361,161.099 51.541,160.942 51.668 C 160.710 51.858,158.747 54.914,153.022 64.000 C 152.761 64.413,152.758 64.461,153.003 64.273 C 153.167 64.148,158.608 61.283,165.095 57.906 L 176.890 51.766 177.364 52.333 C 177.925 53.003,174.945 47.185,174.266 46.281 C 174.010 45.941,173.800 45.524,173.800 45.356 C 173.800 44.471,173.273 44.664,167.600 47.622 M178.100 53.600 C 178.271 53.930,178.455 54.200,178.510 54.200 C 178.565 54.200,178.471 53.930,178.300 53.600 C 178.129 53.270,177.945 53.000,177.890 53.000 C 177.835 53.000,177.929 53.270,178.100 53.600 M60.859 60.949 C 61.717 60.986,63.067 60.986,63.859 60.948 C 64.652 60.910,63.950 60.880,62.300 60.880 C 60.650 60.880,60.002 60.911,60.859 60.949 M80.540 90.176 L 77.380 95.340 77.395 102.155 C 77.409 108.520,77.386 108.975,77.055 109.059 C 76.860 109.108,87.500 109.139,100.700 109.127 C 113.900 109.116,120.133 109.081,114.550 109.051 L 104.400 108.996 104.400 96.998 L 104.400 85.000 94.050 85.006 L 83.700 85.012 80.540 90.176 M41.600 104.613 C 40.665 106.035,39.916 107.267,39.936 107.350 C 39.956 107.432,41.876 110.820,44.203 114.878 C 46.530 118.936,48.538 122.491,48.665 122.778 C 48.792 123.065,49.013 123.423,49.157 123.574 C 49.486 123.918,50.590 123.281,40.800 128.396 C 36.125 130.839,31.385 133.325,30.267 133.921 L 28.233 135.004 27.190 133.302 C 26.616 132.366,26.108 131.600,26.061 131.600 C 26.015 131.600,26.014 131.667,26.061 131.750 C 26.108 131.833,27.569 134.330,29.309 137.300 C 31.048 140.270,32.701 143.105,32.981 143.600 C 33.260 144.095,33.784 144.948,34.145 145.495 C 34.505 146.043,34.800 146.605,34.800 146.745 C 34.800 146.885,34.888 147.000,34.996 147.000 C 35.104 147.000,35.248 147.220,35.315 147.489 C 35.694 149.000,35.405 149.110,46.688 143.199 C 52.355 140.229,57.062 137.802,57.146 137.804 C 57.312 137.808,58.824 140.397,69.756 159.400 C 73.647 166.165,76.915 171.730,77.017 171.767 C 77.119 171.804,77.154 171.913,77.094 172.010 C 77.034 172.106,77.161 172.361,77.376 172.576 C 77.591 172.791,77.714 173.019,77.650 173.083 C 77.586 173.147,77.648 173.200,77.788 173.200 C 77.928 173.200,77.995 173.088,77.936 172.950 C 77.753 172.518,44.291 103.948,43.783 102.963 L 43.300 102.026 41.600 104.613 M78.324 174.350 C 79.126 175.756,79.315 175.864,78.676 174.550 C 78.368 173.918,78.042 173.400,77.950 173.400 C 77.858 173.400,78.027 173.828,78.324 174.350 " stroke="none" fill="#bab7d7" fill-rule="evenodd"></path></g></svg>