<?xml version="1.0" standalone="no"?>
<!DOCTYPE svg PUBLIC "-//W3C//DTD SVG 20010904//EN"
 "http://www.w3.org/TR/2001/REC-SVG-20010904/DTD/svg10.dtd">
<svg version="1.0" xmlns="http://www.w3.org/2000/svg"
 width="512.000000pt" height="512.000000pt" viewBox="0 0 512.000000 512.000000"
 preserveAspectRatio="xMidYMid meet">
<metadata>
Created by potrace 1.14, written by Peter Selinger 2001-2017
</metadata>
<g transform="translate(0.000000,512.000000) scale(0.100000,-0.100000)"
fill="#000000" stroke="none">
<path d="M580 4830 c-89 -11 -104 -29 -294 -355 l-174 -300 25 -45 c14 -25 37
-65 51 -90 39 -69 62 -111 90 -160 14 -25 93 -164 176 -310 82 -146 166 -294
186 -330 20 -36 71 -127 114 -202 l77 -136 -194 -304 c-107 -167 -199 -312
-205 -323 -12 -23 -23 -2 608 -1080 183 -314 338 -579 344 -590 6 -11 43 -74
83 -140 69 -117 103 -154 153 -170 19 -6 470 -10 666 -6 21 1 34 7 38 18 3 10
13 32 23 48 10 17 34 57 54 90 20 33 141 242 269 465 128 223 241 417 251 432
11 15 19 29 19 31 0 3 17 34 38 69 l37 64 399 -1 c425 0 411 -2 438 48 10 21
126 210 869 1427 282 461 284 464 284 520 0 56 -28 113 -293 600 l-19 35 -768
5 -768 5 -68 119 c-38 65 -69 120 -69 122 0 2 -18 33 -40 69 -22 36 -40 67
-40 69 0 3 -23 44 -51 93 -28 48 -65 113 -81 143 -17 30 -34 59 -38 64 -9 9
-2115 15 -2190 6z"/>
</g>
</svg>
